<mxfile host="app.diagrams.net" modified="2024-04-02T14:41:08.730Z" agent="Mozilla/5.0 (Windows NT 10.0; Win64; x64) AppleWebKit/537.36 (KHTML, like Gecko) Chrome/123.0.0.0 Safari/537.36" etag="MClhXXao6lHQh7letUK3" version="24.2.1" type="device">
  <diagram name="PÃ¡gina-1" id="mGlQKVaBZmDL-IWQtEpc">
    <mxGraphModel dx="712" dy="770" grid="1" gridSize="10" guides="1" tooltips="1" connect="1" arrows="1" fold="1" page="1" pageScale="1" pageWidth="827" pageHeight="1169" math="0" shadow="0">
      <root>
        <mxCell id="0" />
        <mxCell id="1" parent="0" />
        <mxCell id="Ee-kXMiCG1DYRKx6BbJl-7" style="edgeStyle=orthogonalEdgeStyle;rounded=0;orthogonalLoop=1;jettySize=auto;html=1;entryX=0.5;entryY=0;entryDx=0;entryDy=0;" parent="1" source="Ee-kXMiCG1DYRKx6BbJl-1" target="Ee-kXMiCG1DYRKx6BbJl-3" edge="1">
          <mxGeometry relative="1" as="geometry" />
        </mxCell>
        <mxCell id="Ee-kXMiCG1DYRKx6BbJl-1" value="a" style="ellipse;whiteSpace=wrap;html=1;aspect=fixed;fontSize=18;" parent="1" vertex="1">
          <mxGeometry x="325" y="100" width="60" height="60" as="geometry" />
        </mxCell>
        <mxCell id="Ee-kXMiCG1DYRKx6BbJl-2" value="" style="endArrow=classic;html=1;rounded=0;entryX=0.5;entryY=0;entryDx=0;entryDy=0;" parent="1" target="Ee-kXMiCG1DYRKx6BbJl-1" edge="1">
          <mxGeometry width="50" height="50" relative="1" as="geometry">
            <mxPoint x="355" y="50" as="sourcePoint" />
            <mxPoint x="410" as="targetPoint" />
          </mxGeometry>
        </mxCell>
        <mxCell id="Ee-kXMiCG1DYRKx6BbJl-10" style="edgeStyle=orthogonalEdgeStyle;rounded=0;orthogonalLoop=1;jettySize=auto;html=1;" parent="1" source="Ee-kXMiCG1DYRKx6BbJl-3" edge="1">
          <mxGeometry relative="1" as="geometry">
            <mxPoint x="355" y="320" as="targetPoint" />
          </mxGeometry>
        </mxCell>
        <mxCell id="Ee-kXMiCG1DYRKx6BbJl-39" style="edgeStyle=orthogonalEdgeStyle;rounded=0;orthogonalLoop=1;jettySize=auto;html=1;exitX=1;exitY=0.5;exitDx=0;exitDy=0;entryX=0;entryY=0.5;entryDx=0;entryDy=0;" parent="1" source="Ee-kXMiCG1DYRKx6BbJl-3" target="Ee-kXMiCG1DYRKx6BbJl-35" edge="1">
          <mxGeometry relative="1" as="geometry" />
        </mxCell>
        <mxCell id="Ee-kXMiCG1DYRKx6BbJl-3" value="b" style="ellipse;whiteSpace=wrap;html=1;aspect=fixed;fontSize=18;" parent="1" vertex="1">
          <mxGeometry x="325" y="200" width="60" height="60" as="geometry" />
        </mxCell>
        <mxCell id="Ee-kXMiCG1DYRKx6BbJl-4" value="int index=0&lt;div&gt;int i = 0&lt;/div&gt;" style="text;html=1;align=center;verticalAlign=middle;resizable=0;points=[];autosize=1;strokeColor=none;fillColor=none;fontSize=10;" parent="1" vertex="1">
          <mxGeometry x="375" y="110" width="80" height="40" as="geometry" />
        </mxCell>
        <mxCell id="Ee-kXMiCG1DYRKx6BbJl-8" value="i &amp;lt; capacity" style="text;html=1;align=center;verticalAlign=middle;resizable=0;points=[];autosize=1;strokeColor=none;fillColor=none;fontSize=10;" parent="1" vertex="1">
          <mxGeometry x="315" y="270" width="80" height="30" as="geometry" />
        </mxCell>
        <mxCell id="Ee-kXMiCG1DYRKx6BbJl-19" style="edgeStyle=orthogonalEdgeStyle;rounded=0;orthogonalLoop=1;jettySize=auto;html=1;exitX=0.5;exitY=1;exitDx=0;exitDy=0;entryX=0.5;entryY=0;entryDx=0;entryDy=0;" parent="1" source="Ee-kXMiCG1DYRKx6BbJl-11" target="Ee-kXMiCG1DYRKx6BbJl-21" edge="1">
          <mxGeometry relative="1" as="geometry">
            <mxPoint x="355.20000000000005" y="460" as="targetPoint" />
          </mxGeometry>
        </mxCell>
        <mxCell id="Ee-kXMiCG1DYRKx6BbJl-11" value="c" style="ellipse;whiteSpace=wrap;html=1;aspect=fixed;fontSize=18;" parent="1" vertex="1">
          <mxGeometry x="325" y="320" width="60" height="60" as="geometry" />
        </mxCell>
        <mxCell id="Ee-kXMiCG1DYRKx6BbJl-37" style="edgeStyle=orthogonalEdgeStyle;rounded=0;orthogonalLoop=1;jettySize=auto;html=1;entryX=0.5;entryY=1;entryDx=0;entryDy=0;" parent="1" source="Ee-kXMiCG1DYRKx6BbJl-13" target="Ee-kXMiCG1DYRKx6BbJl-35" edge="1">
          <mxGeometry relative="1" as="geometry" />
        </mxCell>
        <mxCell id="Ee-kXMiCG1DYRKx6BbJl-13" value="d" style="ellipse;whiteSpace=wrap;html=1;aspect=fixed;fontSize=18;" parent="1" vertex="1">
          <mxGeometry x="622" y="325" width="60" height="60" as="geometry" />
        </mxCell>
        <mxCell id="Ee-kXMiCG1DYRKx6BbJl-14" value="children[i] == null || children[i].data.compareTo(elem) == 0" style="text;html=1;align=center;verticalAlign=middle;resizable=0;points=[];autosize=1;strokeColor=none;fillColor=none;fontSize=9;" parent="1" vertex="1">
          <mxGeometry x="375" y="320" width="260" height="20" as="geometry" />
        </mxCell>
        <mxCell id="Ee-kXMiCG1DYRKx6BbJl-16" style="edgeStyle=orthogonalEdgeStyle;rounded=0;orthogonalLoop=1;jettySize=auto;html=1;exitX=1;exitY=0.5;exitDx=0;exitDy=0;entryX=0;entryY=0.42;entryDx=0;entryDy=0;entryPerimeter=0;" parent="1" source="Ee-kXMiCG1DYRKx6BbJl-11" target="Ee-kXMiCG1DYRKx6BbJl-13" edge="1">
          <mxGeometry relative="1" as="geometry" />
        </mxCell>
        <mxCell id="Ee-kXMiCG1DYRKx6BbJl-20" value="~(children[i] == null || children[i].data.compareTo(elem) == 0)" style="text;html=1;align=center;verticalAlign=middle;resizable=0;points=[];autosize=1;strokeColor=none;fillColor=none;fontSize=9;" parent="1" vertex="1">
          <mxGeometry x="245" y="390" width="270" height="20" as="geometry" />
        </mxCell>
        <mxCell id="Ee-kXMiCG1DYRKx6BbJl-24" style="edgeStyle=orthogonalEdgeStyle;rounded=0;orthogonalLoop=1;jettySize=auto;html=1;entryX=0;entryY=0.5;entryDx=0;entryDy=0;" parent="1" source="Ee-kXMiCG1DYRKx6BbJl-21" target="Ee-kXMiCG1DYRKx6BbJl-22" edge="1">
          <mxGeometry relative="1" as="geometry" />
        </mxCell>
        <mxCell id="Ee-kXMiCG1DYRKx6BbJl-31" style="edgeStyle=orthogonalEdgeStyle;rounded=0;orthogonalLoop=1;jettySize=auto;html=1;entryX=0.5;entryY=0;entryDx=0;entryDy=0;" parent="1" source="Ee-kXMiCG1DYRKx6BbJl-21" target="Ee-kXMiCG1DYRKx6BbJl-30" edge="1">
          <mxGeometry relative="1" as="geometry" />
        </mxCell>
        <mxCell id="Ee-kXMiCG1DYRKx6BbJl-21" value="e" style="ellipse;whiteSpace=wrap;html=1;aspect=fixed;fontSize=18;" parent="1" vertex="1">
          <mxGeometry x="325" y="420" width="60" height="60" as="geometry" />
        </mxCell>
        <mxCell id="Ee-kXMiCG1DYRKx6BbJl-22" value="f" style="ellipse;whiteSpace=wrap;html=1;aspect=fixed;fontSize=18;" parent="1" vertex="1">
          <mxGeometry x="540" y="420" width="60" height="60" as="geometry" />
        </mxCell>
        <mxCell id="Ee-kXMiCG1DYRKx6BbJl-23" value="children[i].data.compareTo(elem) &amp;gt;&lt;span style=&quot;background-color: initial;&quot;&gt;&amp;nbsp;0&lt;/span&gt;" style="text;html=1;align=center;verticalAlign=middle;resizable=0;points=[];autosize=1;strokeColor=none;fillColor=none;fontSize=9;" parent="1" vertex="1">
          <mxGeometry x="374" y="430" width="170" height="20" as="geometry" />
        </mxCell>
        <mxCell id="Ee-kXMiCG1DYRKx6BbJl-26" value="index- -" style="text;html=1;align=center;verticalAlign=middle;resizable=0;points=[];autosize=1;strokeColor=none;fillColor=none;fontSize=10;" parent="1" vertex="1">
          <mxGeometry x="544" y="470" width="60" height="30" as="geometry" />
        </mxCell>
        <mxCell id="Ee-kXMiCG1DYRKx6BbJl-29" value="~(children[i].data.compareTo(elem) &amp;gt;&lt;span style=&quot;background-color: initial;&quot;&gt;&amp;nbsp;0)&lt;/span&gt;" style="text;html=1;align=center;verticalAlign=middle;resizable=0;points=[];autosize=1;strokeColor=none;fillColor=none;fontSize=9;" parent="1" vertex="1">
          <mxGeometry x="270" y="490" width="190" height="20" as="geometry" />
        </mxCell>
        <mxCell id="Ee-kXMiCG1DYRKx6BbJl-42" style="edgeStyle=orthogonalEdgeStyle;rounded=0;orthogonalLoop=1;jettySize=auto;html=1;" parent="1" source="Ee-kXMiCG1DYRKx6BbJl-30" edge="1">
          <mxGeometry relative="1" as="geometry">
            <mxPoint x="355" y="630" as="targetPoint" />
          </mxGeometry>
        </mxCell>
        <mxCell id="Ee-kXMiCG1DYRKx6BbJl-30" value="g" style="ellipse;whiteSpace=wrap;html=1;aspect=fixed;fontSize=18;" parent="1" vertex="1">
          <mxGeometry x="325" y="521" width="60" height="60" as="geometry" />
        </mxCell>
        <mxCell id="Ee-kXMiCG1DYRKx6BbJl-35" value="j" style="ellipse;whiteSpace=wrap;html=1;aspect=fixed;fontSize=18;strokeWidth=3;" parent="1" vertex="1">
          <mxGeometry x="622" y="200" width="60" height="60" as="geometry" />
        </mxCell>
        <mxCell id="Ee-kXMiCG1DYRKx6BbJl-38" style="edgeStyle=orthogonalEdgeStyle;rounded=0;orthogonalLoop=1;jettySize=auto;html=1;entryX=1.011;entryY=0.389;entryDx=0;entryDy=0;entryPerimeter=0;" parent="1" source="Ee-kXMiCG1DYRKx6BbJl-22" target="Ee-kXMiCG1DYRKx6BbJl-35" edge="1">
          <mxGeometry relative="1" as="geometry" />
        </mxCell>
        <mxCell id="Ee-kXMiCG1DYRKx6BbJl-40" value="~ (i &amp;lt; capacity)" style="text;html=1;align=center;verticalAlign=middle;resizable=0;points=[];autosize=1;strokeColor=none;fillColor=none;fontSize=10;" parent="1" vertex="1">
          <mxGeometry x="429" y="200" width="90" height="30" as="geometry" />
        </mxCell>
        <mxCell id="Ee-kXMiCG1DYRKx6BbJl-41" value="return index" style="text;html=1;align=center;verticalAlign=middle;resizable=0;points=[];autosize=1;strokeColor=none;fillColor=none;fontSize=10;" parent="1" vertex="1">
          <mxGeometry x="612" y="170" width="80" height="30" as="geometry" />
        </mxCell>
        <mxCell id="Ee-kXMiCG1DYRKx6BbJl-44" value="children[i].data.compareTo(elem) &amp;lt;&lt;span style=&quot;background-color: initial;&quot;&gt;&amp;nbsp;0&lt;/span&gt;" style="text;html=1;align=center;verticalAlign=middle;resizable=0;points=[];autosize=1;strokeColor=none;fillColor=none;fontSize=9;" parent="1" vertex="1">
          <mxGeometry x="270" y="585" width="170" height="20" as="geometry" />
        </mxCell>
        <mxCell id="Ee-kXMiCG1DYRKx6BbJl-45" value="h" style="ellipse;whiteSpace=wrap;html=1;aspect=fixed;fontSize=18;" parent="1" vertex="1">
          <mxGeometry x="325" y="630" width="60" height="60" as="geometry" />
        </mxCell>
        <mxCell id="Ee-kXMiCG1DYRKx6BbJl-46" value="index++" style="text;html=1;align=center;verticalAlign=middle;resizable=0;points=[];autosize=1;strokeColor=none;fillColor=none;fontSize=10;" parent="1" vertex="1">
          <mxGeometry x="375" y="645" width="60" height="30" as="geometry" />
        </mxCell>
        <mxCell id="Ee-kXMiCG1DYRKx6BbJl-48" style="edgeStyle=orthogonalEdgeStyle;rounded=0;orthogonalLoop=1;jettySize=auto;html=1;entryX=0.5;entryY=1;entryDx=0;entryDy=0;" parent="1" source="Ee-kXMiCG1DYRKx6BbJl-30" target="Ntrnx4J6Spr9A9j1ll1D-1" edge="1">
          <mxGeometry relative="1" as="geometry">
            <Array as="points">
              <mxPoint x="244" y="551" />
            </Array>
          </mxGeometry>
        </mxCell>
        <mxCell id="Ee-kXMiCG1DYRKx6BbJl-49" value="~ (children[i].data.compareTo(elem) &amp;lt;&lt;span style=&quot;background-color: initial;&quot;&gt;&amp;nbsp;0)&lt;/span&gt;" style="text;html=1;align=center;verticalAlign=middle;resizable=0;points=[];autosize=1;strokeColor=none;fillColor=none;fontSize=9;" parent="1" vertex="1">
          <mxGeometry x="149" y="530" width="190" height="20" as="geometry" />
        </mxCell>
        <mxCell id="Ntrnx4J6Spr9A9j1ll1D-4" style="edgeStyle=orthogonalEdgeStyle;rounded=0;orthogonalLoop=1;jettySize=auto;html=1;exitX=0.5;exitY=0;exitDx=0;exitDy=0;entryX=0;entryY=0.5;entryDx=0;entryDy=0;" parent="1" source="Ntrnx4J6Spr9A9j1ll1D-1" target="Ee-kXMiCG1DYRKx6BbJl-3" edge="1">
          <mxGeometry relative="1" as="geometry" />
        </mxCell>
        <mxCell id="Ntrnx4J6Spr9A9j1ll1D-1" value="i" style="ellipse;whiteSpace=wrap;html=1;aspect=fixed;fontSize=18;" parent="1" vertex="1">
          <mxGeometry x="214" y="300" width="60" height="60" as="geometry" />
        </mxCell>
        <mxCell id="Ntrnx4J6Spr9A9j1ll1D-2" value="i++;" style="text;html=1;align=center;verticalAlign=middle;resizable=0;points=[];autosize=1;strokeColor=none;fillColor=none;fontSize=10;" parent="1" vertex="1">
          <mxGeometry x="186" y="294" width="40" height="30" as="geometry" />
        </mxCell>
        <mxCell id="Ntrnx4J6Spr9A9j1ll1D-3" style="edgeStyle=orthogonalEdgeStyle;rounded=0;orthogonalLoop=1;jettySize=auto;html=1;exitX=0;exitY=0.5;exitDx=0;exitDy=0;entryX=0;entryY=0.5;entryDx=0;entryDy=0;" parent="1" source="Ee-kXMiCG1DYRKx6BbJl-45" edge="1" target="Ntrnx4J6Spr9A9j1ll1D-1">
          <mxGeometry relative="1" as="geometry">
            <mxPoint x="230" y="360" as="targetPoint" />
            <Array as="points">
              <mxPoint x="150" y="660" />
              <mxPoint x="150" y="330" />
            </Array>
          </mxGeometry>
        </mxCell>
      </root>
    </mxGraphModel>
  </diagram>
</mxfile>
